REM DIRINDEX 1\2,1\3,1\4
REM DIRNAME folder01,folder02,folder03,folder04
TITLE ""
FILE "Track94.mp3" MP3
  TRACK 01 AUDIO
    TITLE "2:cjc112_421"
    INDEX 01 00:00:00
  TRACK 02 AUDIO
    TITLE "0:"
    INDEX 01 00:01:60
  TRACK 03 AUDIO
    TITLE "3:cjc112_422"
    INDEX 01 00:02:24
  TRACK 04 AUDIO
    TITLE "0:"
    INDEX 01 00:06:63
  TRACK 05 AUDIO
    TITLE "4:cjc112_423"
    INDEX 01 00:12:30
  TRACK 06 AUDIO
    TITLE "0:"
    INDEX 01 00:16:69
